<svg width="196" height="130" viewBox="0 0 196 130" fill="none" xmlns="http://www.w3.org/2000/svg">
<path d="M15.0522 96.7971V118.406H12.1973V94.4289H12.2957L14.3139 95.5143C14.8061 95.7775 15.0522 96.205 15.0522 96.7971ZM15.0522 87.4726V90.1367H14.9538L12.9356 89.0513C12.4434 88.7882 12.1973 88.3606 12.1973 87.7686V85.1045H12.2957L14.3139 86.1899C14.8061 86.453 15.0522 86.8806 15.0522 87.4726Z" fill="#231F20"/>
<path d="M20.9709 101.879C20.9709 99.4118 21.3976 97.1424 22.2508 95.0703C23.104 92.9653 24.2853 91.1728 25.7948 89.6927C27.3043 88.1797 29.0928 86.9957 31.1602 86.1405C33.2275 85.2854 35.4918 84.8578 37.953 84.8578C39.7906 84.8578 41.5955 85.1209 43.3675 85.6472C45.1395 86.1734 46.6655 86.9135 47.9453 87.8673L46.5178 89.9394C43.8926 87.4068 40.9556 86.1405 37.7068 86.1405C35.7379 86.1405 33.9331 86.5023 32.2923 87.2259C30.6515 87.9495 29.2404 88.9691 28.0591 90.2847C26.8777 91.5675 25.9589 93.1298 25.3026 94.9716C24.6791 96.7806 24.3674 98.7869 24.3674 100.991C24.3674 103.326 24.7119 105.497 25.401 107.503C26.123 109.476 27.091 111.203 28.3052 112.683C29.5522 114.13 31.0125 115.265 32.6861 116.087C34.3925 116.91 36.2466 117.321 38.2483 117.321C40.3157 117.321 42.2682 116.91 44.1059 116.087C45.9435 115.232 47.5351 114.032 48.8805 112.486L49.6681 113.078C48.257 114.953 46.5014 116.4 44.4012 117.419C42.3338 118.406 40.1188 118.899 37.7561 118.899C35.3277 118.899 33.0799 118.472 31.0125 117.617C28.9779 116.762 27.2059 115.594 25.6964 114.114C24.2197 112.601 23.0547 110.808 22.2015 108.736C21.3811 106.631 20.9709 104.345 20.9709 101.879Z" fill="#231F20"/>
<path d="M73.1633 94.725V117.567C73.1633 121.646 72.2281 124.738 70.3576 126.843C68.4871 128.947 65.747 130 62.1373 130C60.2668 130 58.2815 129.622 56.1813 128.865L56.5259 127.928C57.3791 128.191 58.1995 128.388 58.987 128.52C59.7746 128.684 60.5458 128.767 61.3005 128.767C64.1555 128.767 66.3705 127.846 67.9456 126.004C69.5208 124.195 70.3084 121.646 70.3084 118.357V112.634H70.2099C67.355 116.679 64.2375 118.702 60.8575 118.702C58.7245 118.702 57.0673 118.094 55.886 116.877C54.7046 115.627 54.1139 113.9 54.1139 111.696V94.725H56.9689V111.647C56.9689 113.325 57.3627 114.624 58.1502 115.545C58.9378 116.466 60.0699 116.926 61.5466 116.926C64.7954 116.926 67.7159 114.92 70.3084 110.907V94.725H73.1633Z" fill="#231F20"/>
<path d="M90.4314 101.879C90.4314 99.4118 90.858 97.1424 91.7112 95.0703C92.5644 92.9653 93.7458 91.1728 95.2553 89.6927C96.7648 88.1797 98.5533 86.9957 100.621 86.1405C102.688 85.2854 104.952 84.8578 107.413 84.8578C109.251 84.8578 111.056 85.1209 112.828 85.6472C114.6 86.1734 116.126 86.9135 117.406 87.8673L115.978 89.9394C113.353 87.4068 110.416 86.1405 107.167 86.1405C105.198 86.1405 103.394 86.5023 101.753 87.2259C100.112 87.9495 98.7009 88.9691 97.5196 90.2847C96.3382 91.5675 95.4194 93.1298 94.7631 94.9716C94.1396 96.7806 93.8278 98.7869 93.8278 100.991C93.8278 103.326 94.1724 105.513 94.8615 107.552C95.5834 109.559 96.5515 111.318 97.7657 112.831C98.9799 114.344 100.407 115.528 102.048 116.383C103.722 117.238 105.51 117.666 107.413 117.666C109.94 117.666 111.958 117.156 113.468 116.137C115.01 115.084 115.781 113.719 115.781 112.042V103.753H107.66V102.52H118.735V114.854C117.258 116.137 115.568 117.14 113.665 117.863C111.761 118.554 109.678 118.899 107.413 118.899C104.952 118.899 102.688 118.472 100.621 117.617C98.5533 116.762 96.7648 115.578 95.2553 114.065C93.7458 112.552 92.5644 110.759 91.7112 108.687C90.858 106.615 90.4314 104.345 90.4314 101.879Z" fill="#231F20"/>
<path d="M124.411 106.566C124.411 104.789 124.706 103.161 125.297 101.681C125.92 100.201 126.757 98.9349 127.807 97.8824C128.89 96.7971 130.17 95.9583 131.647 95.3663C133.123 94.7414 134.748 94.4289 136.52 94.4289C138.292 94.4289 139.916 94.7414 141.393 95.3663C142.87 95.9583 144.133 96.7971 145.183 97.8824C146.266 98.9349 147.103 100.201 147.693 101.681C148.317 103.161 148.629 104.789 148.629 106.566C148.629 108.342 148.317 109.97 147.693 111.45C147.103 112.93 146.266 114.213 145.183 115.298C144.133 116.35 142.87 117.189 141.393 117.814C139.916 118.406 138.292 118.702 136.52 118.702C134.748 118.702 133.123 118.406 131.647 117.814C130.17 117.189 128.89 116.35 127.807 115.298C126.757 114.213 125.92 112.93 125.297 111.45C124.706 109.97 124.411 108.342 124.411 106.566ZM127.561 105.727C127.561 107.437 127.791 109.032 128.25 110.512C128.71 111.96 129.35 113.226 130.17 114.311C131.023 115.364 132.024 116.186 133.173 116.778C134.321 117.37 135.584 117.666 136.963 117.666C138.243 117.666 139.391 117.419 140.408 116.926C141.458 116.433 142.361 115.742 143.116 114.854C143.87 113.933 144.445 112.848 144.838 111.598C145.265 110.315 145.478 108.901 145.478 107.355C145.478 105.645 145.232 104.066 144.74 102.619C144.281 101.171 143.624 99.9217 142.771 98.8692C141.951 97.7838 140.966 96.9451 139.818 96.353C138.702 95.761 137.471 95.465 136.126 95.465C134.846 95.465 133.681 95.7117 132.631 96.205C131.581 96.6984 130.679 97.3891 129.924 98.2771C129.169 99.1652 128.578 100.251 128.152 101.533C127.758 102.783 127.561 104.181 127.561 105.727Z" fill="#231F20"/>
<path d="M168.221 112.436V105.825H167.237C165.661 105.825 164.201 106.023 162.856 106.418C161.543 106.779 160.395 107.289 159.41 107.947C158.426 108.605 157.654 109.378 157.097 110.266C156.539 111.154 156.26 112.124 156.26 113.177C156.26 114.262 156.571 115.133 157.195 115.791C157.851 116.416 158.705 116.729 159.755 116.729C161.33 116.729 162.839 116.367 164.283 115.643C165.727 114.887 167.04 113.818 168.221 112.436ZM156.26 99.9545L154.537 98.0304C155.685 96.8793 157.031 95.9912 158.573 95.3663C160.148 94.7414 161.773 94.4289 163.446 94.4289C165.776 94.4289 167.647 95.0703 169.058 96.353C170.469 97.6358 171.174 99.3625 171.174 101.533V118.702H171.076L168.959 117.617C168.467 117.354 168.221 116.926 168.221 116.334V113.867H168.123C165.366 117.09 162.363 118.702 159.115 118.702C157.277 118.702 155.8 118.242 154.685 117.321C153.602 116.4 153.06 115.166 153.06 113.621C153.06 112.371 153.388 111.22 154.045 110.167C154.734 109.082 155.669 108.144 156.85 107.355C158.032 106.566 159.426 105.957 161.034 105.529C162.642 105.069 164.382 104.839 166.252 104.839H168.221V100.892C168.221 99.2145 167.794 97.8824 166.941 96.8957C166.088 95.909 164.923 95.4157 163.446 95.4157C160.821 95.4157 158.426 96.9286 156.26 99.9545Z" fill="#231F20"/>
<path d="M186.109 95.7117H181.925V113.867C181.925 114.953 182.154 115.775 182.614 116.334C183.106 116.893 183.91 117.255 185.026 117.419V118.406H183.303C181.925 118.406 180.875 118.011 180.153 117.222C179.431 116.433 179.07 115.298 179.07 113.818V95.7117H175.624V94.725H179.07V86.3379H179.168L181.186 87.4233C181.679 87.6864 181.925 88.114 181.925 88.706V94.725H186.109V95.7117Z" fill="#231F20"/>
<path d="M118.241 30.7121V30.6779H109.638C104.673 30.6779 103.496 29.8514 100.67 27.7483C99.197 26.654 98.0654 25.7135 96.6096 25.7192H91.3723C91.3462 25.7194 91.3207 25.7262 91.298 25.739C91.2753 25.7518 91.2562 25.7702 91.2426 25.7925C91.2289 25.8147 91.2211 25.84 91.22 25.8661C91.2188 25.8922 91.2242 25.9181 91.2358 25.9415C91.7646 26.9218 93.8744 30.8261 94.4828 31.9603C95.2562 33.408 97.275 33.9893 100.778 33.9893H118.122V48.8368C118.122 51.85 116.75 54.2894 114.005 56.1551C111.26 58.0208 107.619 58.9517 103.081 58.9479C101.007 58.9562 98.943 58.6566 96.9565 58.0588V38.2127C96.976 37.8716 96.8953 37.5322 96.7245 37.2364C96.5538 36.9407 96.3003 36.7015 95.9955 36.5485L93.374 35.1407H93.2488V56.5085C90.3424 54.9594 87.7868 52.8249 85.7425 50.2389C83.4848 47.3814 81.7343 44.1559 80.5677 40.7035C79.276 36.9276 78.6319 32.9596 78.6627 28.968C78.6131 25.2761 79.19 21.6027 80.3687 18.1046C81.4194 14.9929 83.0889 12.1271 85.2762 9.68057C87.4002 7.34478 89.9932 5.48588 92.8849 4.22605C95.9674 2.90762 99.292 2.25322 102.643 2.30528C106.855 2.29747 110.974 3.54972 114.471 5.90173C114.748 6.08412 115.023 6.2741 115.296 6.47169C115.728 6.7914 116.22 7.02102 116.742 7.14696C117.265 7.2729 117.807 7.29262 118.337 7.20495C118.867 7.11728 119.375 6.924 119.829 6.63653C120.283 6.34906 120.675 5.97324 120.982 5.53126L121.062 5.41156C118.575 3.60648 115.789 2.25583 112.834 1.42184C109.676 0.480428 106.398 0.00240521 103.104 0.00264999C98.9239 -0.0514525 94.7746 0.723353 90.8946 2.28249C87.2885 3.73893 84.0037 5.89251 81.2274 8.62044C78.469 11.3825 76.3018 14.6795 74.8584 18.3098C73.3048 22.2151 72.532 26.3884 72.5838 30.5924C72.5292 34.7819 73.3022 38.9407 74.8584 42.8294C76.3096 46.4489 78.4764 49.7366 81.2284 52.4949C83.9804 55.2532 87.2607 57.4249 90.8719 58.8795C94.7518 60.4386 98.9011 61.2134 103.081 61.1593C106.91 61.1995 110.716 60.5529 114.318 59.25C117.649 58.0273 120.731 56.2102 123.416 53.8866V30.7121H118.241Z" fill="#231F20"/>
<path d="M196 30.0965H137.041V31.0427H196V30.0965Z" fill="#231F20"/>
<path d="M58.9587 30.0965H0V31.0427H58.9587V30.0965Z" fill="#231F20"/>
</svg>
