<svg width="346" height="108" viewBox="0 0 346 108" fill="none" xmlns="http://www.w3.org/2000/svg">
<path d="M208.6 53.8846V53.8246H193.47C184.74 53.8246 182.67 52.3746 177.7 48.6846C175.11 46.7646 173.12 45.1146 170.56 45.1246H161.35C161.304 45.125 161.259 45.1369 161.219 45.1594C161.179 45.1819 161.146 45.2141 161.122 45.2531C161.098 45.2921 161.084 45.3366 161.082 45.3824C161.08 45.4281 161.09 45.4736 161.11 45.5146C162.04 47.2346 165.75 54.0846 166.82 56.0746C168.18 58.6146 171.73 59.6346 177.89 59.6346H208.39V85.6846C208.39 90.9713 205.977 95.2513 201.15 98.5246C196.323 101.798 189.92 103.431 181.94 103.425C178.293 103.439 174.663 102.913 171.17 101.865V67.0446C171.204 66.4461 171.062 65.8506 170.762 65.3317C170.462 64.8128 170.016 64.3932 169.48 64.1246L164.87 61.6546H164.65V99.1446C159.539 96.4268 155.045 92.6818 151.45 88.1446C147.48 83.1311 144.402 77.4719 142.35 71.4146C140.078 64.7898 138.946 57.8279 139 50.8246C138.913 44.3472 139.927 37.9021 142 31.7646C143.848 26.3051 146.784 21.2771 150.63 16.9846C154.365 12.8865 158.925 9.62503 164.01 7.41464C169.431 5.10144 175.277 3.9533 181.17 4.04464C188.577 4.03093 195.819 6.22801 201.97 10.3546C202.457 10.6746 202.94 11.008 203.42 11.3546C204.18 11.9156 205.045 12.3184 205.964 12.5394C206.883 12.7604 207.836 12.795 208.768 12.6412C209.701 12.4873 210.593 12.1482 211.392 11.6439C212.191 11.1395 212.88 10.4801 213.42 9.70465L213.56 9.49464C209.186 6.32761 204.288 3.95788 199.09 2.49464C193.537 0.842916 187.774 0.00421996 181.98 0.00464943C174.63 -0.0902739 167.333 1.26913 160.51 4.00465C154.169 6.55999 148.392 10.3385 143.51 15.1246C138.659 19.9707 134.848 25.7553 132.31 32.1246C129.578 38.9766 128.219 46.2987 128.31 53.6746C128.214 61.0251 129.574 68.3219 132.31 75.1446C134.862 81.495 138.672 87.2634 143.512 92.1028C148.351 96.9422 154.12 100.753 160.47 103.305C167.293 106.04 174.59 107.4 181.94 107.305C188.674 107.375 195.366 106.241 201.7 103.955C207.558 101.81 212.978 98.6214 217.7 94.5446V53.8846H208.6Z" fill="#231F20"/>
<path d="M345.34 52.8046H241.66V54.4646H345.34V52.8046Z" fill="#231F20"/>
<path d="M104.35 52.8046H0.670044V54.4646H104.35V52.8046Z" fill="#231F20"/>
</svg>
